<svg width="32" height="32" viewBox="0 0 32 32" fill="none" xmlns="http://www.w3.org/2000/svg">
<path d="M23.7752 29.9868C21.4192 31.2992 18.7593 32 16 32C7.16344 32 0 24.8366 0 16C0 7.16344 7.16344 0 16 0C24.8366 0 32 7.16344 32 16C32 18.7593 31.2992 21.4192 29.9868 23.7752L30.5515 30.5515L23.7752 29.9868ZM23.0266 26.7133L27.0485 27.0485L26.7133 23.0266L26.9794 22.584C28.1649 20.6119 28.8 18.3545 28.8 16C28.8 8.93075 23.0692 3.2 16 3.2C8.93075 3.2 3.2 8.93075 3.2 16C3.2 23.0692 8.93075 28.8 16 28.8C18.3545 28.8 20.6119 28.1649 22.584 26.9794L23.0266 26.7133ZM16.0005 23.9974C15.1166 23.9974 14.4 23.281 14.4 22.3974C14.4 21.5137 15.1166 20.7974 16.0005 20.7974C16.8845 20.7974 17.601 21.5137 17.601 22.3974C17.601 23.281 16.8845 23.9974 16.0005 23.9974ZM17.6 19.2H14.4V17.6C14.4 16.4203 15.0124 15.5208 15.964 14.7658C16.2503 14.5387 16.3363 14.4817 16.8543 14.1533C17.3161 13.8606 17.6 13.3557 17.6 12.8C17.6 11.9163 16.8837 11.2 16 11.2C15.1163 11.2 14.4 11.9163 14.4 12.8H11.2C11.2 10.149 13.349 8 16 8C18.651 8 20.8 10.149 20.8 12.8C20.8 14.4633 19.9457 15.9824 18.5677 16.856C18.1628 17.1127 18.1131 17.1456 17.9528 17.2728C17.6901 17.4812 17.6 17.6135 17.6 17.6V19.2Z" fill="black"/>
</svg>
