<svg width="38" height="28" viewBox="0 0 38 28" fill="none" xmlns="http://www.w3.org/2000/svg">
<path d="M10.25 19C11.2165 19 12 18.2165 12 17.25C12 16.2835 11.2165 15.5 10.25 15.5C9.28351 15.5 8.5 16.2835 8.5 17.25C8.5 18.2165 9.28351 19 10.25 19Z" stroke="white" stroke-width="3" stroke-linecap="round" stroke-linejoin="round"/>
<path d="M1.5 8.5V2.55C1.5 1.9701 1.9701 1.5 2.55 1.5H35.45C36.0299 1.5 36.5 1.9701 36.5 2.55V8.5M1.5 8.5V24.95C1.5 25.5299 1.9701 26 2.55 26H35.45C36.0299 26 36.5 25.5299 36.5 24.95V8.5M1.5 8.5H36.5" stroke="white" stroke-width="3" stroke-linecap="round" stroke-linejoin="round"/>
</svg>
