<svg width="35" height="35" viewBox="0 0 35 35" fill="none" xmlns="http://www.w3.org/2000/svg">
<path d="M9.7526 7.74261C8.67873 7.74261 7.80816 8.6194 7.80816 9.69328C7.80816 10.7672 8.67872 11.6439 9.75262 11.6439H25.2115C26.2854 11.6439 27.1559 10.7672 27.1559 9.69328C27.1559 8.6194 26.2854 7.74261 25.2115 7.74261H9.7526Z" fill="white"/>
<path d="M7.80816 17.5C7.80816 16.4261 8.67873 15.5493 9.7526 15.5493H25.2115C26.2854 15.5493 27.1559 16.4261 27.1559 17.5C27.1559 18.5739 26.2854 19.4507 25.2115 19.4507H9.75262C8.67872 19.4507 7.80816 18.5739 7.80816 17.5Z" fill="white"/>
<path d="M9.77065 23.3571C8.69677 23.3571 7.8262 24.2338 7.8262 25.3077C7.8262 26.3816 8.69677 27.2584 9.77065 27.2584H25.2296C26.3035 27.2584 27.174 26.3816 27.174 25.3077C27.174 24.2338 26.3035 23.3571 25.2296 23.3571H9.77065Z" fill="white"/>
<path fill-rule="evenodd" clip-rule="evenodd" d="M0 5.83333C0 2.61168 2.61168 0 5.83333 0H29.1667C32.3884 0 35 2.61168 35 5.83333V29.1667C35 32.3884 32.3884 35 29.1667 35H5.83333C2.61168 35 0 32.3884 0 29.1667V5.83333ZM5.83333 3.88889H29.1667C30.2406 3.88889 31.1111 4.75946 31.1111 5.83333V29.1667C31.1111 30.2406 30.2406 31.1111 29.1667 31.1111H5.83333C4.75946 31.1111 3.88889 30.2406 3.88889 29.1667V5.83333C3.88889 4.75946 4.75946 3.88889 5.83333 3.88889Z" fill="white"/>
</svg>
