<svg width="50" height="28" viewBox="0 0 50 28" fill="none" xmlns="http://www.w3.org/2000/svg">
<path d="M47.6958 23.2143L38.8582 16.9771L38.0618 18.1055L46.8994 24.3427L47.6958 23.2143Z" fill="#444343"/>
<path d="M47.5951 17.7302L46.7424 16.6438L38.2336 23.3222L39.0864 24.4087L47.5951 17.7302Z" fill="#444343"/>
<path d="M13.2048 23.0606L4.36724 16.8235L3.57086 17.9519L12.4084 24.1891L13.2048 23.0606Z" fill="#444343"/>
<path d="M13.0993 17.5774L12.2465 16.491L3.73781 23.1695L4.59055 24.2559L13.0993 17.5774Z" fill="#444343"/>
<path d="M8.34921 13.1639C12.3019 13.1639 15.5039 16.3659 15.5039 20.3186C15.5039 24.2714 12.3019 27.4733 8.34921 27.4733C4.39649 27.4733 1.1945 24.2714 1.1945 20.3186C1.1945 16.3659 4.39649 13.1639 8.34921 13.1639ZM8.34921 25.0262C10.9498 25.0262 13.0568 22.9192 13.0568 20.3186C13.0568 17.7181 10.9498 15.611 8.34921 15.611C5.74863 15.611 3.64162 17.7181 3.64162 20.3186C3.64162 22.9192 5.74863 25.0262 8.34921 25.0262Z" fill="#444343"/>
<path d="M8.34921 23.2303C6.74115 23.2303 5.43755 21.9267 5.43755 20.3186C5.43755 18.7106 6.74115 17.407 8.34921 17.407C9.95727 17.407 11.2609 18.7106 11.2609 20.3186C11.2609 21.9267 9.95727 23.2303 8.34921 23.2303Z" fill="url(#paint0_radial_4_263)"/>
<path d="M8.34921 21.6583C7.60932 21.6583 7.00951 21.0585 7.00951 20.3186C7.00951 19.5788 7.60932 18.979 8.34921 18.979C9.0891 18.979 9.6889 19.5788 9.6889 20.3186C9.6889 21.0585 9.0891 21.6583 8.34921 21.6583Z" fill="#666666"/>
<path d="M37.0718 7.94618C36.8976 7.87567 36.6902 7.49823 35.2758 6.90926C33.8573 6.3203 33.0983 6.3203 31.8872 7.01296C30.6761 7.70562 22.0033 11.957 20.8627 12.6123C19.7221 13.2676 17.304 15.8267 16.5408 16.5526V23.1556L37.0718 7.94618Z" fill="#424242"/>
<path d="M15.3588 9.58451C15.0352 9.46422 14.6619 9.34809 14.3633 9.52229C14.1518 9.64672 14.0439 9.88313 13.9485 10.1071L12.8411 12.6704C15.0726 13.6534 17.3579 14.5285 19.6765 15.2834C19.9378 15.3705 21.0203 13.5331 21.153 13.3008C21.5305 12.6372 21.7793 12.1104 21.0079 11.6915C19.299 10.7666 17.1796 10.2647 15.3588 9.58451Z" fill="#999999"/>
<path d="M42.8453 13.3215C46.798 13.3215 50 16.5235 50 20.4763C50 24.429 46.798 27.631 42.8453 27.631C38.8926 27.631 35.6906 24.429 35.6906 20.4763C35.6906 16.5235 38.8926 13.3215 42.8453 13.3215ZM42.8453 25.1838C45.4459 25.1838 47.5529 23.0768 47.5529 20.4763C47.5529 17.8757 45.4459 15.7687 42.8453 15.7687C40.2447 15.7687 38.1377 17.8757 38.1377 20.4763C38.1377 23.0768 40.2447 25.1838 42.8453 25.1838Z" fill="#444343"/>
<path d="M42.8453 23.3838C41.2372 23.3838 39.9336 22.0802 39.9336 20.4721C39.9336 18.8641 41.2372 17.5605 42.8453 17.5605C44.4534 17.5605 45.7569 18.8641 45.7569 20.4721C45.7569 22.0802 44.4534 23.3838 42.8453 23.3838Z" fill="url(#paint1_radial_4_263)"/>
<path d="M42.8453 21.8118C42.1054 21.8118 41.5056 21.212 41.5056 20.4721C41.5056 19.7322 42.1054 19.1324 42.8453 19.1324C43.5852 19.1324 44.185 19.7322 44.185 20.4721C44.185 21.212 43.5852 21.8118 42.8453 21.8118Z" fill="#666666"/>
<path d="M10.112 18.0374L22.0365 15.7023L21.9867 18.0872L10.5806 20.3684C10.3857 19.4476 10.3359 18.9541 10.112 18.0374Z" fill="#808080"/>
<path d="M18.4778 21.086C16.8727 20.4223 13.8075 19.1988 12.7914 18.7965C12.5798 18.7135 12.4264 18.5269 12.3766 18.3029L12.3102 17.9877C12.2646 17.7678 12.1111 17.5812 11.8996 17.4982L1.60098 13.2884C1.26087 13.1473 0.870993 13.305 0.721676 13.6451L0.0787868 15.0926C-0.0746765 15.441 0.0870838 15.8475 0.435486 15.9968L10.589 20.3145C10.7839 20.3974 11.0079 20.385 11.1904 20.2813L11.5678 20.0656C11.7462 19.9619 11.966 19.9495 12.1568 20.0242L17.9552 22.3427C18.1916 22.4381 18.4571 22.3925 18.652 22.2266C19.046 21.903 18.9465 21.2809 18.4778 21.086Z" fill="url(#paint2_linear_4_263)"/>
<path d="M42.866 20.5011C43.1605 20.4306 43.3388 20.132 43.2642 19.8417L42.2563 15.7645C42.1858 15.4742 41.8913 15.2958 41.5968 15.3663C41.3065 15.4369 41.1281 15.7313 41.1987 16.0258L42.2065 20.103C42.277 20.3933 42.5715 20.5717 42.866 20.5011Z" fill="#CCCCCC"/>
<path d="M43.9942 6.62722C43.6126 6.81386 43.0112 7.23692 42.5674 7.62266C42.4637 7.85078 42.4803 8.17429 42.613 8.5227C42.8038 9.01212 43.2766 9.62183 44.0605 9.99097C44.3716 8.76326 44.3509 7.65584 43.9942 6.62722ZM44.243 6.11706C44.9689 7.82589 44.6827 9.42274 44.3384 10.5468C42.5342 9.96194 41.7296 8.24481 42.2356 7.36136C42.5923 7.04613 43.7246 6.15024 44.243 6.11706Z" fill="#BFBEBE"/>
<path d="M37.7976 8.40242C37.9013 8.40242 38.005 8.38168 38.1045 8.34435C38.5317 8.1743 38.7391 7.69317 38.5691 7.26596L37.2833 4.03079C37.2211 3.87318 37.0552 3.45426 36.5906 3.27592C36.1593 3.11001 35.7196 3.3008 35.4998 3.42938C35.4791 3.44182 35.4542 3.45841 35.4334 3.47085L33.5753 4.80225C33.202 5.0677 33.1149 5.58616 33.3845 5.95945C33.6499 6.33274 34.1684 6.41984 34.5417 6.15024L35.9477 5.14651L37.0344 7.87567C37.1589 8.20333 37.4699 8.40242 37.7976 8.40242Z" fill="#504F4F"/>
<path d="M19.5686 23.1515C18.569 23.1515 18.1128 21.9072 18.876 21.2643C20.6968 19.7297 23.0029 17.6724 23.4508 16.76C24.2098 15.2046 23.3471 14.823 27.3911 11.957C30.3359 9.86654 31.5968 9.04116 32.0614 8.75082C32.2107 8.65543 32.3807 8.60151 32.5549 8.58906C33.2974 8.54344 35.4832 8.37339 37.0676 7.94618C39.0045 7.42772 41.8042 4.97231 38.7972 3.10586C35.7901 1.23941 32.8867 0.754136 35.3048 0.0656248C37.1464 -0.461128 41.4931 2.27633 43.6333 4.93912C43.8615 5.22531 44.0522 5.52809 44.2099 5.84331C44.4089 6.24978 44.2472 6.52768 43.8407 6.95489C43.8324 6.96318 43.82 6.96733 43.8117 6.97563C43.6624 7.07517 43.5587 7.22448 43.5006 7.39454C43.2725 8.06231 43.2974 9.04116 43.9942 9.63842C44.3426 9.93291 44.4587 10.4348 44.2679 10.8495C43.8739 11.704 43.2766 12.3468 42.5632 12.5833C40.4562 13.2759 39.8673 15.3124 39.2119 15.8682C38.5566 16.4198 36.0307 18.4273 35.5495 19.7048C35.2841 20.4099 35.2053 21.3846 35.1887 22.1187C35.1763 22.6952 34.7076 23.1598 34.131 23.1598H19.5686V23.1515Z" fill="url(#paint3_linear_4_263)"/>
<path d="M4.20155 5.49076C3.37202 5.07599 3.16463 4.3543 3.06094 3.57869C6.4164 3.75704 11.5429 4.94327 11.9079 5.21701C12.4595 5.63178 13.2227 7.18715 15.0186 7.46505C16.8146 7.74294 20.4811 8.0872 20.4811 8.0872C20.4811 8.0872 23.2103 11.2975 22.0365 11.9528C20.8627 12.6081 20.8627 12.6081 20.8627 12.6081L18.063 11.227C18.063 11.227 16.3293 11.1191 15.085 11.5298C12.9614 10.1113 11.0701 8.15356 9.17874 6.73506C8.34921 5.90553 5.86061 6.32029 4.20155 5.49076Z" fill="url(#paint4_linear_4_263)"/>
<path d="M1.11155 12.2846C0.800474 12.4381 0.381558 12.5625 0.136846 12.3178C-0.112013 12.0648 0.0248594 11.6417 0.18247 11.3265C0.734109 10.2108 1.36041 9.12826 2.05307 8.09134C2.31437 7.70561 2.60471 7.30329 3.03606 7.12494C3.67065 6.86364 4.61217 7.16227 5.08086 7.65169C5.64079 8.23651 5.07671 8.80474 4.67024 9.33979C3.72872 10.5716 2.50516 11.592 1.11155 12.2846Z" fill="url(#paint5_linear_4_263)"/>
<path d="M0.850266 8.73838L4.99792 8.7052V6.70188L0.850266 6.76825V8.73838Z" fill="url(#paint6_linear_4_263)"/>
<path d="M0.850252 8.73838L1.63416 8.73009L1.66319 6.75995L0.850252 6.76825V8.73838Z" fill="#FF6F00"/>
<path d="M33.4425 6.49449C33.4425 6.49449 32.024 3.35056 26.91 3.59113C21.7959 3.83169 20.0995 5.31656 19.8921 7.77197L22.0365 11.9528C22.0365 11.9528 22.7623 13.334 24.1808 12.575C25.2385 12.0067 33.4425 6.49449 33.4425 6.49449Z" fill="url(#paint7_linear_4_263)"/>
<path d="M3.06096 3.57869C3.16465 4.35431 3.37203 5.076 4.20156 5.49077C5.86063 6.3203 8.34922 5.90553 9.17875 6.73506C11.0701 8.15356 12.9614 10.1113 15.0809 11.5298C14.7615 11.6334 14.4753 11.7703 14.2596 11.9528C13.1895 12.8529 11.8415 12.8155 10.3899 12.0897C8.93819 11.3639 0.609688 6.49035 0.194921 4.38334C0.0497541 3.66165 1.31479 3.4833 3.06096 3.57869Z" fill="url(#paint8_linear_4_263)"/>
<path d="M47.8225 14.1677C47.8225 14.1677 45.1597 11.8864 42.0863 12.5086C39.0129 13.1307 39.9419 16.5857 42.0158 16.9673C44.0896 17.3489 42.6379 14.9972 44.2638 14.823C45.8897 14.6488 48.3036 15.7562 47.8225 14.1677Z" fill="#FFB300"/>
<path d="M37.9262 10.2357C38.7433 10.8371 36.404 14.6032 32.4554 14.9018C28.5068 15.2004 32.36 12.8072 34.4255 10.8578C35.9768 9.39371 37.0469 9.58865 37.9262 10.2357Z" fill="url(#paint9_linear_4_263)"/>
<path d="M40.6097 6.30371C40.9498 5.44514 40.5682 4.36675 39.7677 3.91465C39.5479 3.79022 39.27 3.71142 39.0502 3.84C38.876 3.94369 38.793 4.14692 38.7184 4.33772C38.4571 5.03452 38.1958 5.72718 37.9386 6.42399C37.8391 6.68529 37.7437 6.97148 37.8308 7.23693C38.005 7.75124 38.9299 7.5563 39.3115 7.44846C39.8839 7.27841 40.3899 6.85949 40.6097 6.30371Z" fill="url(#paint10_linear_4_263)"/>
<path d="M24.102 19.3356C22.7986 19.3356 21.742 18.279 21.742 16.9756C21.742 15.6722 22.7986 14.6156 24.102 14.6156C25.4054 14.6156 26.462 15.6722 26.462 16.9756C26.462 18.279 25.4054 19.3356 24.102 19.3356Z" fill="#333333"/>
<path d="M24.102 14.823C22.9158 14.823 21.9494 15.7894 21.9494 16.9756C21.9494 18.1619 22.9158 19.1283 24.102 19.1283C25.2883 19.1283 26.2547 18.1619 26.2547 16.9756C26.2547 15.7894 25.2883 14.823 24.102 14.823ZM24.102 14.4082C25.5205 14.4082 26.6694 15.5571 26.6694 16.9756C26.6694 18.3941 25.5205 19.543 24.102 19.543C22.6835 19.543 21.5346 18.3941 21.5346 16.9756C21.5346 15.5571 22.6835 14.4082 24.102 14.4082Z" fill="#808080"/>
<path d="M24.102 17.772C24.5417 17.772 24.8984 17.4153 24.8984 16.9756C24.8984 16.536 24.5417 16.1793 24.102 16.1793C23.6624 16.1793 23.3057 16.536 23.3057 16.9756C23.3057 17.4153 23.6624 17.772 24.102 17.772Z" fill="#333333"/>
<path d="M24.102 16.3867C23.7785 16.3867 23.513 16.6521 23.513 16.9756C23.513 17.2992 23.7785 17.5646 24.102 17.5646C24.4255 17.5646 24.691 17.2992 24.691 16.9756C24.691 16.6521 24.4255 16.3867 24.102 16.3867ZM24.102 15.9719C24.6578 15.9719 25.1058 16.4199 25.1058 16.9756C25.1058 17.5314 24.6578 17.9794 24.102 17.9794C23.5462 17.9794 23.0983 17.5314 23.0983 16.9756C23.0983 16.4199 23.5462 15.9719 24.102 15.9719Z" fill="#808080"/>
<defs>
<radialGradient id="paint0_radial_4_263" cx="0" cy="0" r="1" gradientUnits="userSpaceOnUse" gradientTransform="translate(8.34921 20.3186) rotate(180) scale(2.91165)">
<stop offset="0.0093054" stop-color="#E0E0E0"/>
<stop offset="0.1738" stop-color="#DBDBDB"/>
<stop offset="0.3806" stop-color="#CBCBCB"/>
<stop offset="0.6101" stop-color="#B1B1B1"/>
<stop offset="0.8543" stop-color="#8E8E8E"/>
<stop offset="1" stop-color="#757575"/>
</radialGradient>
<radialGradient id="paint1_radial_4_263" cx="0" cy="0" r="1" gradientUnits="userSpaceOnUse" gradientTransform="translate(42.8453 20.4721) rotate(180) scale(2.91166)">
<stop offset="0.0093054" stop-color="#E0E0E0"/>
<stop offset="0.1738" stop-color="#DBDBDB"/>
<stop offset="0.3806" stop-color="#CBCBCB"/>
<stop offset="0.6101" stop-color="#B1B1B1"/>
<stop offset="0.8543" stop-color="#8E8E8E"/>
<stop offset="1" stop-color="#757575"/>
</radialGradient>
<linearGradient id="paint2_linear_4_263" x1="18.8965" y1="17.8144" x2="0.0207613" y2="17.8144" gradientUnits="userSpaceOnUse">
<stop offset="0.0093054" stop-color="#E0E0E0"/>
<stop offset="0.1738" stop-color="#DBDBDB"/>
<stop offset="0.3806" stop-color="#CBCBCB"/>
<stop offset="0.6101" stop-color="#B1B1B1"/>
<stop offset="0.8543" stop-color="#8E8E8E"/>
<stop offset="1" stop-color="#757575"/>
</linearGradient>
<linearGradient id="paint3_linear_4_263" x1="31.4265" y1="0.0295402" x2="31.4265" y2="23.1893" gradientUnits="userSpaceOnUse">
<stop offset="0.0093054" stop-color="#FFEB3B"/>
<stop offset="0.2301" stop-color="#FDD333"/>
<stop offset="0.514" stop-color="#FBBB2B"/>
<stop offset="0.7778" stop-color="#F9AD27"/>
<stop offset="1" stop-color="#F9A825"/>
</linearGradient>
<linearGradient id="paint4_linear_4_263" x1="12.6953" y1="12.2841" x2="12.6953" y2="6.03128" gradientUnits="userSpaceOnUse">
<stop stop-color="#212121"/>
<stop offset="0.5892" stop-color="#616161"/>
</linearGradient>
<linearGradient id="paint5_linear_4_263" x1="4.81968" y1="6.75895" x2="0.56833" y2="12.462" gradientUnits="userSpaceOnUse">
<stop offset="0.0084158" stop-color="#BDBDBD"/>
<stop offset="0.1823" stop-color="#B6B6B6"/>
<stop offset="0.4419" stop-color="#A1A1A1"/>
<stop offset="0.7537" stop-color="#808080"/>
<stop offset="1" stop-color="#616161"/>
</linearGradient>
<linearGradient id="paint6_linear_4_263" x1="4.99792" y1="7.72013" x2="0.850266" y2="7.72013" gradientUnits="userSpaceOnUse">
<stop offset="0.0093054" stop-color="#E0E0E0"/>
<stop offset="0.1738" stop-color="#DBDBDB"/>
<stop offset="0.3806" stop-color="#CBCBCB"/>
<stop offset="0.6101" stop-color="#B1B1B1"/>
<stop offset="0.8543" stop-color="#8E8E8E"/>
<stop offset="1" stop-color="#757575"/>
</linearGradient>
<linearGradient id="paint7_linear_4_263" x1="26.6673" y1="3.76243" x2="26.6673" y2="12.6202" gradientUnits="userSpaceOnUse">
<stop offset="0.0093054" stop-color="#FFEB3B"/>
<stop offset="0.2301" stop-color="#FDD333"/>
<stop offset="0.514" stop-color="#FBBB2B"/>
<stop offset="0.7778" stop-color="#F9AD27"/>
<stop offset="1" stop-color="#F9A825"/>
</linearGradient>
<linearGradient id="paint8_linear_4_263" x1="7.63221" y1="4.7305" x2="7.63221" y2="11.6517" gradientUnits="userSpaceOnUse">
<stop offset="0.0093054" stop-color="#FFEB3B"/>
<stop offset="0.2301" stop-color="#FDD333"/>
<stop offset="0.514" stop-color="#FBBB2B"/>
<stop offset="0.7778" stop-color="#F9AD27"/>
<stop offset="1" stop-color="#F9A825"/>
</linearGradient>
<linearGradient id="paint9_linear_4_263" x1="34.4175" y1="9.58658" x2="34.4175" y2="15.1888" gradientUnits="userSpaceOnUse">
<stop offset="0.0077351" stop-color="#616161"/>
<stop offset="0.2083" stop-color="#4C4C4C"/>
<stop offset="0.5002" stop-color="#343434"/>
<stop offset="0.7715" stop-color="#262626"/>
<stop offset="1" stop-color="#212121"/>
</linearGradient>
<linearGradient id="paint10_linear_4_263" x1="39.3389" y1="4.12776" x2="39.2054" y2="8.13312" gradientUnits="userSpaceOnUse">
<stop offset="0.0077351" stop-color="#616161"/>
<stop offset="1" stop-color="#212121"/>
</linearGradient>
</defs>
</svg>
