<svg width="30" height="30" viewBox="0 0 30 30" fill="none" xmlns="http://www.w3.org/2000/svg">
<path d="M1.3235 10.3921C2.1732 10.3921 2.63068 9.91829 2.63068 9.05227V5.19604C2.63068 3.49677 3.54571 2.63075 5.17973 2.63075H9.13391C9.98362 2.63075 10.4575 2.15682 10.4575 1.30719C10.4575 0.473864 9.98362 0 9.13391 0H5.13065C1.73204 0 0 1.68303 0 5.04901V9.05227C0 9.91829 0.473863 10.3921 1.3235 10.3921ZM28.6764 10.3921C29.5422 10.3921 30 9.91829 30 9.05227V5.04901C30 1.68303 28.3005 0 24.8692 0H20.8823C20.0162 0 19.5424 0.473864 19.5424 1.30719C19.5424 2.15682 20.0162 2.63075 20.8823 2.63075H24.8365C26.4378 2.63075 27.3692 3.49677 27.3692 5.19604V9.05227C27.3692 9.91829 27.843 10.3921 28.6764 10.3921ZM14.2973 13.5784V7.87581C14.2973 7.48365 13.9869 7.15682 13.5783 7.15682H7.89212C7.48365 7.15682 7.17313 7.48365 7.17313 7.87581V13.5784C7.17313 13.9706 7.48365 14.281 7.89212 14.281H13.5783C13.9869 14.281 14.2973 13.9706 14.2973 13.5784ZM17.1241 8.57841H21.4051V12.8594H17.1241V8.57841ZM20.1633 11.6176V9.83658H18.3823V11.6176H20.1633ZM11.6339 11.6176V9.83658H9.83651V11.6176H11.6339ZM8.59472 17.1241H12.8757V21.4051H8.59472V17.1241ZM22.6143 17.6797V15.8986H20.8332V17.6797H22.6143ZM17.696 17.6797V15.8986H15.915V17.6797H17.696ZM11.6339 20.147V18.3659H9.83651V20.147H11.6339ZM20.1633 20.147V18.3659H18.3659V20.147H20.1633ZM20.8823 29.9835H24.8692C28.3005 29.9835 30 28.2842 30 24.9182V20.9313C30 20.0653 29.5261 19.5915 28.6764 19.5915C27.8267 19.5915 27.3692 20.0653 27.3692 20.9313V24.7875C27.3692 26.4868 26.4378 27.3529 24.8365 27.3529H20.8823C20.0162 27.3529 19.5424 27.8267 19.5424 28.6764C19.5424 29.5097 20.0162 29.9835 20.8823 29.9835ZM5.13065 29.9835H9.13391C9.98362 29.9835 10.4575 29.5097 10.4575 28.6764C10.4575 27.8267 9.98362 27.3529 9.13391 27.3529H5.17973C3.54571 27.3529 2.63068 26.4868 2.63068 24.7875V20.9313C2.63068 20.0653 2.15682 19.5915 1.3235 19.5915C0.45748 19.5915 0 20.0653 0 20.9313V24.9182C0 28.3005 1.73204 29.9835 5.13065 29.9835ZM17.696 22.6143V20.8332H15.915V22.6143H17.696ZM22.6143 22.6143V20.8332H20.8332V22.6143H22.6143ZM22.8267 13.5784V7.87581C22.8267 7.48365 22.5162 7.15682 22.1077 7.15682H16.4214C16.013 7.15682 15.7025 7.48365 15.7025 7.87581V13.5784C15.7025 13.9706 16.013 14.281 16.4214 14.281H22.1077C22.5162 14.281 22.8267 13.9706 22.8267 13.5784ZM8.59472 8.57841H12.8757V12.8594H8.59472V8.57841ZM14.2973 22.1077V16.4052C14.2973 16.013 13.9869 15.7026 13.5783 15.7026H7.89212C7.48365 15.7026 7.17313 16.013 7.17313 16.4052V22.1077C7.17313 22.5 7.48365 22.8267 7.89212 22.8267H13.5783C13.9869 22.8267 14.2973 22.5 14.2973 22.1077Z" fill="white"/>
</svg>
