<svg width="25" height="39" viewBox="0 0 25 39" fill="none" xmlns="http://www.w3.org/2000/svg">
<path d="M9.11202 0.000916063C8.38798 0.000916063 7.81421 0.574687 7.81421 1.28507V6.33971C7.81421 6.70857 7.51366 7.00911 7.14481 7.00911C6.77596 7.00911 6.47541 6.70857 6.47541 6.33971V1.33971C6.47541 0.629331 5.92896 0.0145773 5.23224 0.000916063C4.5082 -0.0264063 3.9071 0.561025 3.9071 1.28507V6.33971C3.9071 6.70857 3.60656 7.00911 3.2377 7.00911C2.86885 7.00911 2.56831 6.70857 2.56831 6.33971V1.33971C2.56831 0.629331 2.02186 0.0145773 1.32514 0.000916063C0.601093 -0.0264063 0 0.561025 0 1.28507V9.91895C0 11.6122 0.805192 13.1143 2.05322 14.0634C3.21038 14.909 3.21038 17.6376 3.21038 17.6376V36.49C3.21038 37.46 4.00273 38.2523 4.97268 38.2523H5.40984C6.37978 38.2523 7.17213 37.46 7.17213 36.49V17.6239C7.17213 17.6239 7.17213 14.8421 8.3112 14.0634C9.56954 13.1152 10.3825 11.6067 10.3825 9.90529V1.28507C10.3962 0.574687 9.8224 0.000916063 9.11202 0.000916063Z" fill="#DF2121"/>
<path d="M21.9399 0.000831604C23.6339 0.000831604 25 1.36695 25 3.06094V21.7085L24.9863 21.7036V36.4762C24.9863 37.4462 24.194 38.2385 23.224 38.2385H22.7869C21.8169 38.2385 21.0246 37.4462 21.0246 36.4762V20.269C18.9143 19.3122 17.541 17.2008 17.541 14.8505V4.39974C17.5273 1.96804 19.5082 0.000831604 21.9399 0.000831604Z" fill="#DF2121"/>
</svg>
