<svg width="60" height="38" viewBox="0 0 60 38" fill="none" xmlns="http://www.w3.org/2000/svg">
<path d="M19.9255 35.0372C22.7075 35.0372 24.9628 32.7821 24.9628 30C24.9628 27.2179 22.7075 24.9628 19.9255 24.9628C17.1436 24.9628 14.8883 27.2179 14.8883 30C14.8883 32.7821 17.1436 35.0372 19.9255 35.0372Z" stroke="#955409" stroke-width="4.55652" stroke-miterlimit="1.5" stroke-linecap="round" stroke-linejoin="round"/>
<path d="M45.1117 35.0372C47.8938 35.0372 50.1489 32.7821 50.1489 30C50.1489 27.2179 47.8938 24.9628 45.1117 24.9628C42.3296 24.9628 40.0745 27.2179 40.0745 30C40.0745 32.7821 42.3296 35.0372 45.1117 35.0372Z" stroke="#955409" stroke-width="4.55652" stroke-miterlimit="1.5" stroke-linecap="round" stroke-linejoin="round"/>
<path d="M25.0887 30H37.5558V3.80639C37.5558 2.9718 36.8793 2.29522 36.0447 2.29522H2.29522" stroke="#955409" stroke-width="4.55652" stroke-linecap="round"/>
<path d="M14.0068 30H8.84363C8.00903 30 7.33246 29.3235 7.33246 28.4888V16.1476" stroke="#955409" stroke-width="4.55652" stroke-linecap="round"/>
<path d="M4.81384 9.85107H14.8883" stroke="#955409" stroke-width="4.55652" stroke-linecap="round" stroke-linejoin="round"/>
<path d="M37.5558 9.85107H51.6855C52.2827 9.85107 52.8239 10.2028 53.0665 10.7485L57.5746 20.8917C57.6604 21.0851 57.7048 21.2942 57.7048 21.5055V28.4888C57.7048 29.3235 57.0283 30 56.1936 30H51.4082" stroke="#955409" stroke-width="4.55652" stroke-linecap="round"/>
<path d="M37.5558 30H40.0745" stroke="#955409" stroke-width="4.55652" stroke-linecap="round"/>
</svg>
