<svg width="44" height="41" viewBox="0 0 44 41" fill="none" xmlns="http://www.w3.org/2000/svg">
<path d="M43.7347 32.4195C43.7347 32.4195 35.8406 33.1493 35.8406 26.8188C35.8406 23.3978 40.0104 15.9871 40.0104 12.4428C40.0104 11.4667 39.6787 10.3295 38.8732 9.38182C38.3804 10.5853 36.5229 11.3056 33.8505 9.8841C32.5428 9.19232 32.0689 8.19727 32.2206 7.3633C30.5622 7.4107 29.0175 7.85607 27.1885 8.94591C22.6776 11.5994 12.2628 24.0801 12.2628 31.4813C12.2628 38.6457 19.3134 39.8113 19.3134 39.8113C18.9343 38.4372 18.5079 37.0157 18.6974 36.068C21.0002 38.731 22.9429 39.7165 24.8098 40.1714C24.1275 38.7215 24.0233 37.8401 23.9285 36.9494C26.2976 38.7215 29.0933 39.8018 32.2016 40.3894C31.633 39.3659 31.614 38.3045 31.4719 37.281C33.4809 38.4941 35.6226 39.3375 38.0866 39.2237C37.2053 38.3045 36.5703 37.3 36.0302 36.4471C37.5464 36.8451 37.8023 37.5843 42.4743 37.1768C40.7969 36.2955 40.0578 35.6605 39.4323 35.0635C41.4603 34.8929 43.2893 34.2485 43.7347 32.4195ZM33.6041 22.5638C32.9218 22.6397 32.2679 22.706 31.6425 22.7439L33.6041 22.5638ZM25.1036 22.2985C21.3603 21.3982 19.4271 19.4081 19.0006 17.2854L22.0616 13.5895C23.0851 17.9487 27.0842 20.2042 38.2382 18.6121L36.9399 22.0332C35.8785 22.2416 34.874 22.4028 33.9169 22.5259L25.1036 22.2985ZM28.4963 22.7628C27.4159 22.706 26.4303 22.5733 25.5395 22.3932L28.4963 22.7628ZM31.415 22.7534C30.401 22.8102 29.4534 22.8102 28.5815 22.7723L31.415 22.7534ZM39.6787 0H44L36.902 8.26364C35.291 8.5669 34.7413 7.93194 34.7413 6.82317L39.6787 0ZM7.73293 32.3248C7.73293 33.8949 6.46007 35.1678 4.88994 35.1678C3.31981 35.1678 2.04695 33.8949 2.04695 32.3248C2.04695 30.7547 3.31981 29.4818 4.88994 29.4818C6.46007 29.4818 7.73293 30.7547 7.73293 32.3248ZM2.04695 28.2214C2.04695 28.7866 1.5887 29.2449 1.02348 29.2449C0.458254 29.2449 0 28.7866 0 28.2214C0 27.6562 0.458254 27.1979 1.02348 27.1979C1.5887 27.1979 2.04695 27.6562 2.04695 28.2214ZM8.04566 25.4542C8.04566 26.5899 7.12497 27.5106 5.98924 27.5106C4.85352 27.5106 3.93283 26.5899 3.93283 25.4542C3.93283 24.3185 4.85352 23.3978 5.98924 23.3978C7.12497 23.3978 8.04566 24.3185 8.04566 25.4542Z" fill="#54D6DE"/>
</svg>
