<svg width="39" height="41" viewBox="0 0 39 41" fill="none" xmlns="http://www.w3.org/2000/svg">
<path d="M30.4164 13.0601C33.1519 13.0601 35.3696 10.8425 35.3696 8.10689C35.3696 5.37134 33.1519 3.15372 30.4164 3.15372C27.6807 3.15372 25.4633 5.37134 25.4633 8.10689C25.4633 10.8425 27.6807 13.0601 30.4164 13.0601Z" stroke="#292D32" stroke-width="6.26517" stroke-miterlimit="10" stroke-linecap="round" stroke-linejoin="round"/>
<path d="M13.0601 8.10689C13.0601 5.36856 10.8452 3.15372 8.10691 3.15372C5.36857 3.15372 3.15372 5.36856 3.15372 8.10689C3.15372 10.8452 5.36857 13.0601 8.10691 13.0601" stroke="#292D32" stroke-width="6.26517" stroke-miterlimit="10" stroke-linecap="round" stroke-linejoin="round"/>
<path d="M30.4164 37.8463C33.1548 37.8463 35.3696 35.6314 35.3696 32.8931C35.3696 30.1548 33.1548 27.9399 30.4164 27.9399C27.6781 27.9399 25.4633 30.1548 25.4633 32.8931" stroke="#292D32" stroke-width="6.26517" stroke-miterlimit="10" stroke-linecap="round" stroke-linejoin="round"/>
<path d="M8.10691 37.8259C10.8425 37.8259 13.0601 35.6085 13.0601 32.8728C13.0601 30.1372 10.8425 27.9196 8.10691 27.9196C5.37135 27.9196 3.15372 30.1372 3.15372 32.8728C3.15372 35.6085 5.37135 37.8259 8.10691 37.8259Z" stroke="#292D32" stroke-width="6.26517" stroke-miterlimit="10" stroke-linecap="round" stroke-linejoin="round"/>
</svg>
