<svg width="50" height="24" viewBox="0 0 50 24" fill="none" xmlns="http://www.w3.org/2000/svg">
<path d="M37.856 7.6533C37.856 7.6533 31.9085 1.92562 27.6753 0.697823C23.4422 -0.529973 6.65414 0.885148 6.09217 1.24351C5.53019 1.60187 2.16444 5.28322 1.51084 6.76757C0.857235 8.25192 0.899994 10.4998 1.04252 11.2145C1.08802 11.557 1.19934 11.8875 1.37034 12.1878C1.37034 12.1878 0.35227 12.1369 0.248427 12.6989C0.144584 13.2608 0.248427 16.6877 0.248427 17.4024C0.248427 18.117 0.810404 18.624 1.51084 18.7829C2.21127 18.9417 10.252 18.7829 10.252 18.7829C10.252 18.7829 10.9056 19.7561 11.1866 19.7561H49.4478C50.2887 19.7561 49.401 18.5793 49.1668 18.5793C49.1668 18.5793 49.7288 14.283 49.401 14.0285L49.0732 13.7617C49.0979 13.3337 49.0119 12.9066 48.8237 12.5214C48.6353 12.1362 48.351 11.8061 47.9981 11.5627C46.7906 10.7442 43.1989 9.16615 37.856 7.6533Z" fill="#68E1FD"/>
<path d="M49.4478 19.9496H11.1846C10.8832 19.9496 10.4638 19.4405 10.1441 18.9783C8.92241 19.0028 2.14408 19.1209 1.46604 18.9783C0.614933 18.793 0.0407396 18.1639 0.0407396 17.3983C0.0407396 17.2171 0.0407385 16.8587 0.0285217 16.4148C-0.00202052 14.6678 -0.0223816 13.0654 0.0448112 12.6602C0.120149 12.2041 0.616969 12.031 1.04456 11.9882C0.954965 11.7491 0.886825 11.5024 0.840945 11.2512C0.702487 10.5405 0.637329 8.21934 1.32351 6.68002C2.00969 5.14069 5.36322 1.46138 5.98018 1.0684C6.3874 0.81592 11.4187 0.378147 15.491 0.168424C19.0135 -0.0107566 25.2889 -0.206226 27.7262 0.49828C31.8372 1.68943 37.4081 6.93861 37.9599 7.46597C43.1256 8.9381 46.7906 10.5039 48.1121 11.3937C48.4812 11.6448 48.7817 11.9843 48.9862 12.3811C49.1906 12.778 49.2926 13.2197 49.2829 13.666L49.5272 13.8574C49.8001 14.0712 49.7532 15.6167 49.3888 18.4489C49.6799 18.6526 49.9996 19.1494 49.9996 19.467C50.0024 19.5329 49.9901 19.5985 49.9636 19.6588C49.9372 19.7192 49.8972 19.7727 49.8469 19.8152C49.734 19.9059 49.5926 19.9535 49.4478 19.9496ZM10.25 18.5691C10.2835 18.5692 10.3165 18.5777 10.346 18.5937C10.3754 18.6097 10.4005 18.6327 10.419 18.6607C10.7142 19.0985 11.0787 19.5098 11.1968 19.5423H49.4478C49.4621 19.5423 49.5883 19.5423 49.5964 19.5016C49.6351 19.3082 49.2788 18.8378 49.1404 18.7707C49.0869 18.7636 49.0385 18.7356 49.0057 18.6928C48.9728 18.6501 48.9583 18.596 48.9652 18.5426C49.2157 16.6266 49.3908 14.4846 49.2564 14.1629L48.949 13.9226C48.9218 13.9014 48.9004 13.8737 48.8869 13.842C48.8734 13.8103 48.8681 13.7757 48.8716 13.7414C48.8941 13.3497 48.815 12.9588 48.642 12.6067C48.469 12.2546 48.2079 11.9532 47.884 11.7317C46.6196 10.8806 42.924 9.2985 37.8011 7.83859C37.769 7.82954 37.7396 7.81276 37.7155 7.78972C37.6565 7.7327 31.7537 2.08851 27.6142 0.883112C23.3139 -0.360973 6.76409 1.13763 6.19194 1.41047C5.6605 1.74847 2.31919 5.42372 1.69613 6.83884C1.0527 8.29265 1.10972 10.4937 1.24207 11.1656C1.28565 11.4787 1.38495 11.7815 1.53527 12.0595C1.55705 12.0909 1.56955 12.1278 1.57135 12.166C1.57315 12.2041 1.56418 12.242 1.54545 12.2753C1.52723 12.3087 1.50003 12.3363 1.46692 12.3551C1.43381 12.3738 1.39612 12.3828 1.35813 12.3812C1.13822 12.369 0.498872 12.4097 0.447969 12.7213C0.380776 13.1285 0.415389 15.1748 0.435751 16.4026C0.435751 16.8485 0.450005 17.2171 0.450005 17.3922C0.450005 17.9643 0.883703 18.4286 1.55156 18.5752C2.10743 18.6953 8.01632 18.6118 10.2459 18.5752L10.25 18.5691Z" fill="#093F68"/>
<path d="M22.3019 7.8732L21.5994 1.83807C21.5994 1.83807 26.1339 2.2453 28.6588 3.05975C31.1836 3.87421 33.8 5.82077 34.2683 6.74721C34.7367 7.67366 34.643 8.43518 34.2683 8.57974C33.8937 8.72431 22.3019 7.8732 22.3019 7.8732Z" fill="white"/>
<path d="M33.9385 8.80168C32.1854 8.80168 25.3867 8.30893 22.2856 8.07478C22.2384 8.07132 22.1939 8.05154 22.1598 8.01885C22.1256 7.98615 22.1038 7.94257 22.0983 7.8956L21.3979 1.8625C21.3942 1.83217 21.3975 1.80142 21.4073 1.77252C21.4172 1.74362 21.4335 1.7173 21.4549 1.69553C21.476 1.67432 21.5016 1.65802 21.5297 1.64782C21.5579 1.63761 21.5879 1.63374 21.6178 1.63648C21.8051 1.65277 26.2052 2.05593 28.7219 2.87242C31.1754 3.66856 33.9222 5.61715 34.4496 6.65558C34.7753 7.29493 34.8731 7.93428 34.7122 8.36594C34.683 8.4557 34.6353 8.53833 34.5722 8.60848C34.5091 8.67863 34.4319 8.73474 34.3457 8.77317C34.2115 8.79781 34.0749 8.80737 33.9385 8.80168ZM22.4852 7.6818C27.0217 8.02184 33.7695 8.47997 34.2093 8.39445C34.2686 8.35331 34.3118 8.29286 34.3315 8.22341C34.4251 7.97297 34.4088 7.47615 34.0871 6.84087C33.6555 5.9918 31.1042 4.07171 28.5895 3.25929C26.4536 2.567 22.8069 2.16385 21.8255 2.06611L22.4852 7.6818Z" fill="#093F68"/>
<path d="M33.6229 9.50823C33.4742 9.49805 33.9507 5.91647 33.9507 5.91647C33.9507 5.91647 35.4921 6.37663 35.9604 7.49855C36.4287 8.62047 35.7262 9.64872 33.6229 9.50823Z" fill="#093F68"/>
<path d="M33.9874 9.72406C33.8652 9.72406 33.7389 9.71999 33.6086 9.71184C33.5501 9.70562 33.4962 9.6772 33.458 9.63243C33.3908 9.55302 33.2808 9.4166 33.7471 5.89C33.7512 5.86105 33.7616 5.83334 33.7774 5.80875C33.7932 5.78416 33.8141 5.76325 33.8387 5.74747C33.8634 5.7314 33.8914 5.7209 33.9205 5.71668C33.9497 5.71246 33.9795 5.71463 34.0077 5.72303C34.0749 5.74136 35.6489 6.22189 36.1477 7.41914C36.2666 7.65959 36.3202 7.92708 36.303 8.19476C36.2859 8.46245 36.1986 8.72092 36.05 8.94422C35.6855 9.45325 34.9606 9.72406 33.9874 9.72406ZM33.796 9.31683C34.7326 9.35348 35.4106 9.13969 35.7181 8.70599C35.8247 8.53858 35.8856 8.34623 35.8949 8.148C35.9042 7.94977 35.8615 7.75256 35.771 7.57593C35.4493 6.80423 34.5493 6.35424 34.1197 6.19338C33.9487 7.5067 33.8 8.87499 33.796 9.31276V9.31683Z" fill="#093F68"/>
<path d="M20.2922 7.71845L20.0113 1.83807C20.0113 1.83807 11.3169 1.83807 10.5208 2.2453C9.72465 2.65252 7.15707 4.70292 7.24869 5.61715C7.34032 6.53138 8.79209 6.6902 9.21357 6.94675C9.63506 7.20331 20.2922 7.71845 20.2922 7.71845Z" fill="white"/>
<path d="M20.2922 7.92207H20.2821C17.7695 7.80194 9.53936 7.3886 9.10769 7.12594C8.95699 7.05295 8.80031 6.993 8.63938 6.94676C8.02853 6.74314 7.12856 6.44994 7.04711 5.64362C6.93716 4.55428 9.6941 2.44484 10.4292 2.06611C11.2436 1.64667 19.1153 1.63445 20.0112 1.63445C20.0653 1.63445 20.117 1.6559 20.1552 1.69409C20.1934 1.73228 20.2149 1.78407 20.2149 1.83807L20.4938 7.72049C20.4938 7.77449 20.4724 7.82628 20.4342 7.86447C20.396 7.90265 20.3442 7.92411 20.2902 7.92411L20.2922 7.92207ZM19.8178 2.04168C16.3401 2.04168 11.1561 2.1496 10.6144 2.42855C9.7389 2.88057 7.37697 4.87192 7.45231 5.6029C7.50728 6.14655 8.20568 6.3746 8.76562 6.55989C8.95924 6.61312 9.14688 6.68612 9.32556 6.77775C9.74704 6.94879 15.9064 7.30308 20.0825 7.50466L19.8178 2.04168Z" fill="#093F68"/>
<path d="M9.55972 23.2033C12.2316 23.2033 14.3976 21.0373 14.3976 18.3655C14.3976 15.6936 12.2316 13.5276 9.55972 13.5276C6.88783 13.5276 4.72184 15.6936 4.72184 18.3655C4.72184 21.0373 6.88783 23.2033 9.55972 23.2033Z" fill="#093F68"/>
<path d="M9.55972 23.409C8.5622 23.409 7.58709 23.1132 6.75768 22.559C5.92828 22.0048 5.28184 21.2171 4.9001 20.2955C4.51837 19.3739 4.41849 18.3599 4.6131 17.3815C4.8077 16.4032 5.28805 15.5045 5.9934 14.7991C6.69875 14.0938 7.59743 13.6134 8.57578 13.4188C9.55412 13.2242 10.5682 13.3241 11.4898 13.7058C12.4114 14.0876 13.1991 14.734 13.7533 15.5634C14.3075 16.3928 14.6033 17.3679 14.6033 18.3655C14.6022 19.7028 14.0705 20.985 13.1248 21.9306C12.1792 22.8762 10.897 23.4079 9.55972 23.409ZM9.55972 13.7312C8.64266 13.7312 7.7462 14.0032 6.98372 14.5127C6.22124 15.0222 5.62699 15.7464 5.27614 16.5937C4.92529 17.441 4.83359 18.3733 5.01265 19.2727C5.19171 20.1721 5.63348 20.9983 6.28208 21.6466C6.93068 22.2949 7.75698 22.7363 8.65647 22.915C9.55596 23.0936 10.4882 23.0015 11.3354 22.6503C12.1825 22.2991 12.9065 21.7045 13.4157 20.9418C13.9249 20.1791 14.1964 19.2825 14.196 18.3655C14.1944 17.1365 13.7054 15.9584 12.8362 15.0896C11.967 14.2208 10.7887 13.7323 9.55972 13.7312Z" fill="#093F68"/>
<path d="M9.55972 21.1366C11.0902 21.1366 12.3309 19.8959 12.3309 18.3655C12.3309 16.835 11.0902 15.5943 9.55972 15.5943C8.02923 15.5943 6.78852 16.835 6.78852 18.3655C6.78852 19.8959 8.02923 21.1366 9.55972 21.1366Z" fill="#68E1FD"/>
<path d="M9.55972 21.3403C8.97136 21.3403 8.39621 21.1658 7.907 20.8389C7.4178 20.512 7.03651 20.0474 6.81135 19.5039C6.5862 18.9603 6.52729 18.3622 6.64207 17.7851C6.75685 17.208 7.04018 16.678 7.45621 16.262C7.87224 15.8459 8.4023 15.5626 8.97936 15.4478C9.55642 15.333 10.1546 15.3919 10.6981 15.6171C11.2417 15.8422 11.7063 16.2235 12.0332 16.7127C12.3601 17.2019 12.5345 17.7771 12.5345 18.3655C12.534 19.1543 12.2204 19.9106 11.6626 20.4684C11.1049 21.0261 10.3485 21.3397 9.55972 21.3403ZM9.55972 15.7999C9.05181 15.7999 8.55532 15.9506 8.13303 16.2328C7.71075 16.515 7.38166 16.9161 7.18739 17.3854C6.99312 17.8547 6.94239 18.371 7.04162 18.8692C7.14086 19.3673 7.3856 19.8248 7.74489 20.1838C8.10417 20.5428 8.56186 20.7871 9.06006 20.886C9.55825 20.9848 10.0746 20.9337 10.5437 20.739C11.0128 20.5444 11.4137 20.215 11.6956 19.7925C11.9775 19.37 12.1277 18.8734 12.1273 18.3655C12.1273 17.6845 11.8568 17.0314 11.3753 16.5499C10.8938 16.0684 10.2407 15.7979 9.55972 15.7979V15.7999Z" fill="#093F68"/>
<path d="M37.6158 23.2033C40.2877 23.2033 42.4536 21.0373 42.4536 18.3655C42.4536 15.6936 40.2877 13.5276 37.6158 13.5276C34.9439 13.5276 32.7779 15.6936 32.7779 18.3655C32.7779 21.0373 34.9439 23.2033 37.6158 23.2033Z" fill="#093F68"/>
<path d="M37.6158 23.409C36.6182 23.409 35.6431 23.1132 34.8137 22.559C33.9843 22.0048 33.3379 21.2171 32.9562 20.2955C32.5744 19.3739 32.4745 18.3599 32.6691 17.3815C32.8637 16.4032 33.3441 15.5045 34.0495 14.7991C34.7548 14.0938 35.6535 13.6134 36.6318 13.4188C37.6102 13.2242 38.6243 13.3241 39.5458 13.7058C40.4674 14.0876 41.2551 14.734 41.8093 15.5634C42.3635 16.3928 42.6593 17.3679 42.6593 18.3655C42.6582 19.7028 42.1265 20.985 41.1809 21.9306C40.2353 22.8762 38.9531 23.4079 37.6158 23.409ZM37.6158 13.7312C36.6987 13.7312 35.8022 14.0032 35.0398 14.5127C34.2773 15.0222 33.683 15.7464 33.3322 16.5937C32.9813 17.441 32.8896 18.3733 33.0687 19.2727C33.2478 20.1721 33.6895 20.9983 34.3381 21.6466C34.9867 22.2949 35.813 22.7363 36.7125 22.915C37.612 23.0936 38.5443 23.0015 39.3914 22.6503C40.2386 22.2991 40.9625 21.7045 41.4717 20.9418C41.9809 20.1791 42.2525 19.2825 42.2521 18.3655C42.2504 17.1365 41.7614 15.9584 40.8922 15.0896C40.023 14.2208 38.8447 13.7323 37.6158 13.7312Z" fill="#093F68"/>
<path d="M37.6158 21.1366C39.1463 21.1366 40.387 19.8959 40.387 18.3655C40.387 16.835 39.1463 15.5943 37.6158 15.5943C36.0853 15.5943 34.8446 16.835 34.8446 18.3655C34.8446 19.8959 36.0853 21.1366 37.6158 21.1366Z" fill="#68E1FD"/>
<path d="M37.6158 21.3403C37.0274 21.3403 36.4523 21.1658 35.9631 20.8389C35.4738 20.512 35.0926 20.0474 34.8674 19.5039C34.6422 18.9603 34.5833 18.3622 34.6981 17.7851C34.8129 17.208 35.0962 16.678 35.5123 16.262C35.9283 15.8459 36.4584 15.5626 37.0354 15.4478C37.6125 15.333 38.2106 15.3919 38.7542 15.6171C39.2978 15.8422 39.7624 16.2235 40.0892 16.7127C40.4161 17.2019 40.5906 17.7771 40.5906 18.3655C40.59 19.1543 40.2764 19.9106 39.7187 20.4684C39.1609 21.0261 38.4046 21.3397 37.6158 21.3403ZM37.6158 15.7999C37.1079 15.7999 36.6114 15.9506 36.1891 16.2328C35.7668 16.515 35.4377 16.9161 35.2434 17.3854C35.0492 17.8547 34.9984 18.371 35.0977 18.8692C35.1969 19.3673 35.4416 19.8248 35.8009 20.1838C36.1602 20.5428 36.6179 20.7871 37.1161 20.886C37.6143 20.9848 38.1306 20.9337 38.5997 20.739C39.0689 20.5444 39.4697 20.215 39.7516 19.7925C40.0335 19.37 40.1837 18.8734 40.1833 18.3655C40.1833 18.0283 40.1169 17.6944 39.9879 17.3829C39.8589 17.0714 39.6697 16.7883 39.4313 16.5499C39.1929 16.3115 38.9098 16.1224 38.5983 15.9933C38.2868 15.8643 37.9529 15.7979 37.6158 15.7979V15.7999Z" fill="#093F68"/>
<path d="M2.3538 7.2705C2.16497 7.70246 2.00977 8.14834 1.88956 8.60418C1.69816 9.72813 1.68594 10.8439 1.80811 10.9478C1.93028 11.0516 3.11735 11.0272 3.25785 10.9478C3.39834 10.8684 4.36348 9.11525 4.47954 8.73653C4.5956 8.3578 4.84604 7.58203 4.6241 7.42728C4.40216 7.27254 2.57167 7.05263 2.3538 7.2705Z" fill="#FFBC0E"/>
<path d="M2.43728 11.2227C1.81218 11.2227 1.72056 11.1412 1.67373 11.1025C1.32758 10.7991 1.68594 8.59196 1.69002 8.56956C1.81164 8.09805 1.97098 7.63707 2.16647 7.19109C2.17662 7.16755 2.19113 7.14613 2.20923 7.12797C2.52687 6.81033 4.48971 7.0791 4.7483 7.26032C5.0069 7.44154 4.98653 7.88745 4.68111 8.79965C4.6017 9.03991 3.60806 10.9865 3.35558 11.127C3.0865 11.2007 2.80773 11.233 2.52891 11.2227H2.43728ZM1.95879 10.789C2.35452 10.829 2.75358 10.8229 3.1479 10.7706C3.58286 10.1011 3.96608 9.39927 4.29425 8.67137C4.56912 7.85691 4.52433 7.63294 4.49786 7.59018C4.2352 7.45783 2.816 7.31326 2.50651 7.41303C2.33324 7.80841 2.19162 8.21693 2.08299 8.63472C1.94577 9.34406 1.904 10.0686 1.95879 10.789Z" fill="#093F68"/>
<path d="M48.1304 14.0712C48.1304 14.0712 48.0245 12.8618 47.4178 12.5339C46.811 12.2061 44.4593 11.2654 44.2984 11.6869C44.1375 12.1084 45.3266 13.6029 45.63 13.8595C45.9334 14.116 48.1304 14.0712 48.1304 14.0712Z" fill="#FFBC0E"/>
<path d="M47.6417 14.2789C46.8639 14.2789 45.7624 14.2382 45.4977 14.0162C45.3124 13.8574 43.8688 12.2163 44.107 11.6136C44.1254 11.566 44.1541 11.5231 44.1911 11.4879C44.2281 11.4527 44.2723 11.4261 44.3208 11.41C44.9418 11.1799 47.1714 12.1634 47.5135 12.3507C48.1996 12.7192 48.3279 13.9144 48.3279 14.0488C48.3303 14.0764 48.327 14.1042 48.3182 14.1304C48.3095 14.1567 48.2954 14.1809 48.277 14.2015C48.2584 14.2228 48.2356 14.2399 48.21 14.2518C48.1844 14.2637 48.1566 14.2702 48.1284 14.2708L47.6417 14.2789ZM44.4837 11.7867C44.4674 12.1063 45.3755 13.3769 45.7624 13.7047C45.9232 13.8228 46.9535 13.8798 47.8983 13.8696C47.8311 13.4909 47.6621 12.8964 47.32 12.7131C46.5728 12.31 44.8298 11.691 44.4837 11.7867Z" fill="#093F68"/>
<path d="M2.64904 13.0308H1.3683C1.3143 13.0308 1.26251 13.0093 1.22433 12.9711C1.18614 12.9329 1.16469 12.8811 1.16469 12.8271C1.16469 12.7731 1.18614 12.7213 1.22433 12.6832C1.26251 12.645 1.3143 12.6235 1.3683 12.6235H2.64904C2.70304 12.6235 2.75483 12.645 2.79302 12.6832C2.8312 12.7213 2.85265 12.7731 2.85265 12.8271C2.85265 12.8811 2.8312 12.9329 2.79302 12.9711C2.75483 13.0093 2.70304 13.0308 2.64904 13.0308Z" fill="#093F68"/>
<path d="M26.9036 10.174H24.4969C24.4429 10.174 24.3911 10.1526 24.3529 10.1144C24.3147 10.0762 24.2933 10.0244 24.2933 9.97043C24.2933 9.91643 24.3147 9.86464 24.3529 9.82645C24.3911 9.78827 24.4429 9.76682 24.4969 9.76682H26.9036C26.9576 9.76682 27.0094 9.78827 27.0476 9.82645C27.0858 9.86464 27.1072 9.91643 27.1072 9.97043C27.1072 10.0244 27.0858 10.0762 27.0476 10.1144C27.0094 10.1526 26.9576 10.174 26.9036 10.174Z" fill="#093F68"/>
<path d="M18.7977 10.174H16.391C16.337 10.174 16.2852 10.1526 16.247 10.1144C16.2088 10.0762 16.1874 10.0244 16.1874 9.97043C16.1874 9.91643 16.2088 9.86464 16.247 9.82645C16.2852 9.78827 16.337 9.76682 16.391 9.76682H18.7977C18.8517 9.76682 18.9035 9.78827 18.9417 9.82645C18.9799 9.86464 19.0013 9.91643 19.0013 9.97043C19.0013 10.0244 18.9799 10.0762 18.9417 10.1144C18.9035 10.1526 18.8517 10.174 18.7977 10.174Z" fill="#093F68"/>
<path d="M21.968 19.4344C21.914 19.4344 21.8622 19.413 21.824 19.3748C21.7858 19.3366 21.7644 19.2848 21.7644 19.2308V10.5935C21.7644 10.2982 20.9316 8.96457 20.1253 7.83858C20.0937 7.79457 20.0809 7.73981 20.0897 7.68635C20.0984 7.6329 20.1281 7.58511 20.1721 7.55352C20.2161 7.52193 20.2709 7.50912 20.3243 7.5179C20.3778 7.52668 20.4256 7.55634 20.4572 7.60035C20.7422 8.00758 22.1716 10.0213 22.1716 10.5935V19.2308C22.1716 19.2848 22.1502 19.3366 22.112 19.3748C22.0738 19.413 22.022 19.4344 21.968 19.4344Z" fill="#093F68"/>
<path d="M12.3309 5.42575C12.2956 5.42575 12.2609 5.41655 12.2301 5.39905C12.1994 5.38156 12.1738 5.35638 12.1558 5.32598C12.1283 5.27954 12.1203 5.22406 12.1337 5.17175C12.147 5.11944 12.1806 5.07458 12.2271 5.04703L16.2892 2.65863C16.3122 2.64188 16.3385 2.63014 16.3664 2.62419C16.3942 2.61823 16.423 2.61819 16.4509 2.62407C16.4788 2.62994 16.5051 2.6416 16.5282 2.65829C16.5513 2.67498 16.5706 2.69633 16.585 2.72096C16.5993 2.74559 16.6083 2.77295 16.6114 2.80128C16.6144 2.8296 16.6115 2.85826 16.6029 2.88539C16.5942 2.91252 16.5799 2.93753 16.5609 2.9588C16.542 2.98006 16.5188 2.99712 16.4928 3.00885L12.4327 5.39725C12.4019 5.41555 12.3668 5.42538 12.3309 5.42575Z" fill="#DFEAEF"/>
<path d="M15.0268 6.64947C14.9927 6.64941 14.9592 6.64081 14.9293 6.62445C14.8994 6.60808 14.8741 6.58448 14.8557 6.55581C14.8265 6.51067 14.8162 6.45578 14.8273 6.40314C14.8384 6.35049 14.8698 6.30436 14.9148 6.27482L17.4803 4.60722C17.5257 4.57779 17.5809 4.56758 17.6338 4.57885C17.6867 4.59011 17.7329 4.62192 17.7623 4.66728C17.7918 4.71265 17.802 4.76784 17.7907 4.82073C17.7794 4.87361 17.7476 4.91986 17.7023 4.94929L15.1367 6.61689C15.1039 6.63806 15.0658 6.64937 15.0268 6.64947Z" fill="#DFEAEF"/>
<path d="M24.4969 7.04245C24.4555 7.04239 24.4152 7.02976 24.3812 7.00622C24.3473 6.98268 24.3212 6.94936 24.3067 6.91069C24.2921 6.87202 24.2896 6.82982 24.2996 6.78971C24.3096 6.74959 24.3315 6.71347 24.3625 6.68613L27.5063 3.8681C27.5262 3.85019 27.5495 3.83637 27.5747 3.82744C27.6 3.81851 27.6268 3.81465 27.6535 3.81607C27.6803 3.81748 27.7065 3.82416 27.7307 3.83571C27.7548 3.84726 27.7765 3.86345 27.7944 3.88337C27.8123 3.90329 27.8262 3.92655 27.8351 3.95181C27.844 3.97707 27.8479 4.00384 27.8465 4.03059C27.845 4.05735 27.8384 4.08356 27.8268 4.10773C27.8153 4.13191 27.7991 4.15357 27.7791 4.17149L24.6333 6.99155C24.5957 7.02475 24.5471 7.04288 24.4969 7.04245Z" fill="#DFEAEF"/>
<path d="M28.616 7.47819C28.5886 7.47808 28.5614 7.47244 28.5363 7.46159C28.5111 7.45074 28.4883 7.43492 28.4694 7.41507C28.4315 7.37692 28.4102 7.32531 28.4102 7.27152C28.4102 7.21773 28.4315 7.16612 28.4694 7.12797L30.3019 5.36874C30.3209 5.34965 30.3434 5.33451 30.3682 5.32417C30.393 5.31383 30.4196 5.30851 30.4465 5.30851C30.4734 5.30851 30.5 5.31383 30.5248 5.32417C30.5496 5.33451 30.5721 5.34965 30.5911 5.36874C30.629 5.40689 30.6503 5.4585 30.6503 5.51229C30.6503 5.56608 30.629 5.61769 30.5911 5.65584L28.7585 7.41507C28.7401 7.43443 28.718 7.44998 28.6935 7.46081C28.6691 7.47164 28.6427 7.47754 28.616 7.47819Z" fill="#DFEAEF"/>
</svg>
