<svg width="37" height="32" viewBox="0 0 37 32" fill="none" xmlns="http://www.w3.org/2000/svg">
<path fill-rule="evenodd" clip-rule="evenodd" d="M15.7961 0.825304C16.4171 0.292751 17.2081 0 18.0262 0C18.8442 0 19.6353 0.292751 20.2562 0.825304L31.1085 10.1258L35.3683 13.5343C35.5439 13.6749 35.6902 13.8487 35.7987 14.0458C35.9072 14.2429 35.9758 14.4594 36.0006 14.6831C36.0254 14.9067 36.006 15.133 35.9433 15.3491C35.8807 15.5652 35.776 15.7668 35.6355 15.9425C35.4949 16.1182 35.3211 16.2644 35.124 16.3729C34.9269 16.4814 34.7103 16.55 34.4867 16.5748C34.2631 16.5997 34.0368 16.5802 33.8207 16.5175C33.6046 16.4549 33.4029 16.3503 33.2273 16.2097L31.7286 15.0107V28.5744C31.7286 29.4829 31.3677 30.3542 30.7252 30.9967C30.0828 31.6391 29.2115 32 28.303 32H21.4518V23.436C21.4518 22.5275 21.0908 21.6562 20.4484 21.0137C19.806 20.3713 18.9347 20.0104 18.0262 20.0104C17.1176 20.0104 16.2463 20.3713 15.6039 21.0137C14.9615 21.6562 14.6005 22.5275 14.6005 23.436V32H7.74934C6.84082 32 5.9695 31.6391 5.32708 30.9967C4.68465 30.3542 4.32374 29.4829 4.32374 28.5744V15.009L2.82504 16.208C2.65056 16.357 2.44793 16.4694 2.22918 16.5385C2.01042 16.6077 1.78 16.6322 1.55159 16.6106C1.32318 16.589 1.10143 16.5218 0.899517 16.4128C0.697601 16.3039 0.519628 16.1555 0.376165 15.9765C0.232701 15.7974 0.12667 15.5914 0.0643654 15.3706C0.00206098 15.1498 -0.0152469 14.9187 0.013469 14.6911C0.0421849 14.4634 0.116339 14.2439 0.231531 14.0455C0.346722 13.8471 0.500602 13.6738 0.684037 13.536L4.94377 10.1275L15.7961 0.825304Z" fill="black"/>
</svg>
