<svg width="34" height="34" viewBox="0 0 34 34" fill="none" xmlns="http://www.w3.org/2000/svg">
<path d="M28.3333 0H5.66667C4.16377 0 2.72243 0.597022 1.65973 1.65973C0.597022 2.72243 0 4.16377 0 5.66667V28.3333C0 29.8362 0.597022 31.2776 1.65973 32.3403C2.72243 33.403 4.16377 34 5.66667 34H28.3333C29.8362 34 31.2776 33.403 32.3403 32.3403C33.403 31.2776 34 29.8362 34 28.3333V5.66667C34 4.16377 33.403 2.72243 32.3403 1.65973C31.2776 0.597022 29.8362 0 28.3333 0ZM30.2222 28.3333C30.2222 28.8343 30.0232 29.3147 29.669 29.669C29.3147 30.0232 28.8343 30.2222 28.3333 30.2222H5.66667C5.1657 30.2222 4.68526 30.0232 4.33102 29.669C3.97678 29.3147 3.77778 28.8343 3.77778 28.3333V5.66667C3.77778 5.1657 3.97678 4.68526 4.33102 4.33102C4.68526 3.97678 5.1657 3.77778 5.66667 3.77778H28.3333C28.8343 3.77778 29.3147 3.97678 29.669 4.33102C30.0232 4.68526 30.2222 5.1657 30.2222 5.66667V28.3333Z" fill="white"/>
<path d="M22.6667 15.1111H18.8889V11.3334C18.8889 10.8324 18.6899 10.352 18.3356 9.99772C17.9814 9.64348 17.501 9.44448 17 9.44448C16.499 9.44448 16.0186 9.64348 15.6643 9.99772C15.3101 10.352 15.1111 10.8324 15.1111 11.3334V15.1111H11.3333C10.8324 15.1111 10.3519 15.3101 9.99768 15.6644C9.64345 16.0186 9.44444 16.4991 9.44444 17C9.44444 17.501 9.64345 17.9814 9.99768 18.3357C10.3519 18.6899 10.8324 18.8889 11.3333 18.8889H15.1111V22.6667C15.1111 23.1677 15.3101 23.6481 15.6643 24.0023C16.0186 24.3566 16.499 24.5556 17 24.5556C17.501 24.5556 17.9814 24.3566 18.3356 24.0023C18.6899 23.6481 18.8889 23.1677 18.8889 22.6667V18.8889H22.6667C23.1676 18.8889 23.6481 18.6899 24.0023 18.3357C24.3565 17.9814 24.5555 17.501 24.5555 17C24.5555 16.4991 24.3565 16.0186 24.0023 15.6644C23.6481 15.3101 23.1676 15.1111 22.6667 15.1111Z" fill="white"/>
</svg>
