<svg width="50" height="32" viewBox="0 0 50 32" fill="none" xmlns="http://www.w3.org/2000/svg">
<path d="M25.1616 0.00979614H34.809V4.1332H25.1616V0.00979614Z" fill="#E5E4DF"/>
<path d="M25.7591 4.1332H24.3683V2.762H25.7591V4.1332ZM25.7591 0H24.6719C24.5054 0 24.3683 0.137121 24.3683 0.303624V1.3712H25.7591V0ZM33.4378 4.1332H34.8286V2.762H33.4378V4.1332ZM33.4378 1.381H34.8286V0.313419C34.8286 0.146915 34.6915 0.00979492 34.525 0.00979492H33.4378V1.381Z" fill="#2B3B47"/>
<path d="M50 18.8051V22.9089C50 24.7307 48.5211 26.2096 46.6993 26.2096H0.763957C0.342801 26.2096 0 25.8668 0 25.4456V22.7326C0 22.3115 0.342801 21.9687 0.763957 21.9687C1.18511 21.9687 1.11655 21.6259 1.11655 21.2047C1.11655 19.4907 1.23408 17.4535 2.81097 16.7483C2.81097 16.7483 6.92458 13.9373 11.2439 13.8198L15.6611 6.03331C16.4349 4.6621 17.8942 3.81979 19.4711 3.81979H37.9334C39.7453 3.81979 41.4104 4.85799 42.2037 6.48384L45.857 13.9667L48.7267 16.1802C49.5299 16.8168 50 17.7865 50 18.8051ZM25.7591 1.381H24.3683V2.75221H25.7591V1.381ZM33.4378 2.75221H34.8286V1.381H33.4378V2.75221Z" fill="#366EFF"/>
<path d="M5.26934 25.3673C5.26934 21.5475 8.36435 18.4525 12.1841 18.4525C16.0039 18.4525 19.0989 21.5475 19.0989 25.3673V26.2096H5.26934V25.3673ZM30.5975 26.1998H44.427V25.3575C44.427 21.5377 41.332 18.4427 37.5122 18.4427C33.6925 18.4427 30.5975 21.5377 30.5975 25.3575V26.1998Z" fill="#E08820"/>
<path d="M17.9138 25.5142C17.9138 28.6092 15.4065 31.1068 12.3213 31.1068C9.23604 31.1068 6.7287 28.5994 6.7287 25.5142C6.7287 22.429 9.23604 19.9216 12.3213 19.9216C15.4065 19.9216 17.9138 22.429 17.9138 25.5142ZM37.6592 19.9216C34.5642 19.9216 32.0666 22.429 32.0666 25.5142C32.0666 28.5994 34.5739 31.1068 37.6592 31.1068C40.7444 31.1068 43.2517 28.5994 43.2517 25.5142C43.2517 22.429 40.7444 19.9216 37.6592 19.9216Z" fill="#2B3B47"/>
<path d="M16.0137 13.0558L41.5083 13.1244C42.0274 13.1244 42.3702 12.5759 42.145 12.1058L40.1371 7.99217C39.618 6.92459 38.5113 6.23898 37.3261 6.23898H20.2938C19.3046 6.23898 18.3839 6.76788 17.8942 7.62978L15.4065 12.0078C15.142 12.478 15.475 13.0558 16.0137 13.0558Z" fill="white"/>
<path d="M27.0911 3.03624H26.954C26.8658 3.03624 26.7875 2.96768 26.7875 2.86974V1.60627C26.7875 1.51812 26.7189 1.43977 26.621 1.43977H26.4055C26.3173 1.43977 26.239 1.37121 26.239 1.27326V1.24388C26.239 1.15573 26.3075 1.07738 26.4055 1.07738H27.6298C27.7277 1.07738 27.8061 1.16553 27.7963 1.26347V1.29285C27.7865 1.37121 27.7179 1.42997 27.6298 1.42997H27.4143C27.3261 1.42997 27.2478 1.49853 27.2478 1.59648V2.85994C27.2478 2.96768 27.1792 3.03624 27.0911 3.03624Z" fill="#2B3B47"/>
<path d="M28.3448 2.74241L28.3056 2.90892C28.286 2.97748 28.2174 3.03624 28.1489 3.03624H28.0117C27.904 3.03624 27.8257 2.92851 27.855 2.82077L28.3448 1.2047C28.3643 1.13614 28.4329 1.08717 28.5015 1.08717H28.8247C28.8932 1.08717 28.9618 1.13614 28.9814 1.2047L29.4711 2.82077C29.5005 2.92851 29.4221 3.03624 29.3144 3.03624H29.1675C29.0891 3.03624 29.0304 2.98727 29.0108 2.90892L28.9716 2.74241C28.952 2.67385 28.8834 2.61509 28.8149 2.61509H28.5113C28.4231 2.62488 28.3545 2.67385 28.3448 2.74241ZM28.6484 2.28208C28.7561 2.28208 28.8345 2.18414 28.8051 2.0764L28.6484 1.42018L28.4917 2.0764C28.4721 2.18414 28.5504 2.28208 28.6484 2.28208Z" fill="#2B3B47"/>
<path d="M30.3526 1.19491L30.4505 1.41039C30.5093 1.53772 30.6856 1.53772 30.7444 1.41039L30.8521 1.19491C30.8815 1.13615 30.9403 1.10677 30.999 1.10677H31.1068C31.2341 1.10677 31.3124 1.24389 31.2439 1.35162L30.9109 1.91969C30.8815 1.96867 30.8815 2.02743 30.9109 2.0764L31.3026 2.81098C31.3614 2.91871 31.2831 3.05583 31.1557 3.05583H31.0284C30.9598 3.05583 30.9109 3.01666 30.8815 2.95789L30.7346 2.64447C30.6758 2.51715 30.4995 2.51715 30.4407 2.64447L30.2938 2.95789C30.2644 3.01666 30.2057 3.05583 30.1469 3.05583H30.0294C29.9021 3.05583 29.8237 2.92851 29.8825 2.82077L30.2644 2.10579C30.2938 2.05681 30.2938 1.99805 30.2644 1.94908L29.9314 1.36142C29.8727 1.25368 29.951 1.11656 30.0783 1.11656H30.1959C30.2644 1.09697 30.3232 1.13615 30.3526 1.19491Z" fill="#2B3B47"/>
<path d="M32.7032 1.43977H32.6249C32.5367 1.43977 32.4584 1.50833 32.4584 1.60627V2.53673C32.4584 2.62488 32.5269 2.70324 32.6249 2.70324H32.7032C32.7914 2.70324 32.8697 2.7718 32.8697 2.86974V2.88933C32.8697 2.97748 32.8012 3.05583 32.7032 3.05583H31.763C31.6748 3.05583 31.5965 2.98727 31.5965 2.88933V2.86974C31.5965 2.78159 31.665 2.70324 31.763 2.70324H31.8413C31.9295 2.70324 32.0078 2.63468 32.0078 2.53673V1.59648C32.0078 1.50833 31.9393 1.42997 31.8413 1.42997H31.763C31.6748 1.42997 31.5965 1.36141 31.5965 1.26347V1.25368C31.5965 1.16553 31.665 1.08717 31.763 1.08717H32.7032C32.7914 1.08717 32.8697 1.15573 32.8697 1.25368V1.26347C32.8697 1.36141 32.7914 1.43977 32.7032 1.43977Z" fill="#2B3B47"/>
<path d="M29.9118 4.54456H32.6445V14.4956H29.9118V4.54456Z" fill="#366EFF"/>
<path d="M15.9941 25.5142C15.9941 27.5416 14.3487 29.1773 12.331 29.1773C10.3134 29.1773 8.66797 27.5318 8.66797 25.5142C8.66797 23.4868 10.3134 21.8511 12.331 21.8511C14.3487 21.8511 15.9941 23.4868 15.9941 25.5142ZM37.6592 21.8511C35.6317 21.8511 33.9961 23.4966 33.9961 25.5142C33.9961 27.5416 35.6415 29.1773 37.6592 29.1773C39.6866 29.1773 41.3222 27.5318 41.3222 25.5142C41.3222 23.4868 39.6768 21.8511 37.6592 21.8511Z" fill="#9BA5A8"/>
<path d="M13.6043 25.5142C13.6043 26.2194 13.0264 26.7973 12.3213 26.7973C11.6161 26.7973 11.0382 26.2194 11.0382 25.5142C11.0382 24.809 11.6161 24.2311 12.3213 24.2311C13.0264 24.2311 13.6043 24.809 13.6043 25.5142ZM37.6592 24.2311C36.954 24.2311 36.3761 24.809 36.3761 25.5142C36.3761 26.2194 36.954 26.7973 37.6592 26.7973C38.3643 26.7973 38.9422 26.2194 38.9422 25.5142C38.9422 24.809 38.3643 24.2311 37.6592 24.2311Z" fill="#E5E4DF"/>
<path d="M49.9902 21.7728H49.236C48.4231 21.7728 47.9138 21.1068 47.9138 20.2938C47.9138 19.4809 48.4231 18.8149 49.236 18.8149H49.9902V21.7728ZM1.08717 21.5671H1.93927C2.7522 21.5671 3.26151 20.9011 3.26151 20.0881C3.26151 19.2752 2.7522 18.6092 1.93927 18.6092H1.36141C1.05779 19.2165 1.08717 21.5671 1.08717 21.5671Z" fill="#FF473E"/>
<path d="M20.1371 11.381V13.2909C20.1371 13.8492 19.3634 14.1724 18.8051 13.859C18.4133 13.6435 18.0118 13.3692 17.7277 13.0852H15.7982C15.2889 13.0852 14.9853 12.5269 15.2498 12.1058L17.1792 8.88345L18.002 11.3614C18.237 11.1655 18.5113 10.9892 18.7855 10.8227C19.3438 10.4897 20.1371 10.8227 20.1371 11.381ZM41.9882 13.1244C42.4094 13.1244 42.6934 12.6738 42.5073 12.2919L39.8237 6.81685C39.6572 6.48384 39.3144 6.26836 38.9422 6.26836H37.6592V13.144L41.9882 13.1244Z" fill="#2B3B47"/>
</svg>
