<svg width="60" height="42" viewBox="0 0 60 42" fill="none" xmlns="http://www.w3.org/2000/svg">
<path d="M39.9108 21.0021C38.3266 21.0021 36.836 20.1584 36.0298 18.8085L30.0021 8.81541L23.9837 18.8085C23.1681 20.1678 21.6776 21.0115 20.0933 21.0115C19.6715 21.0115 19.2496 20.9553 18.8465 20.8334L6.00359 17.1586V33.8451C6.00359 35.2231 6.94103 36.423 8.2722 36.7512L28.5397 41.8227C29.4959 42.0571 30.4989 42.0571 31.4457 41.8227L51.732 36.7512C53.0631 36.4137 54.0006 35.2137 54.0006 33.8451V17.1586L41.1576 20.824C40.7545 20.9459 40.3327 21.0021 39.9108 21.0021ZM59.8408 10.4841L55.013 0.847162C54.7224 0.265949 54.0943 -0.0715302 53.4475 0.0128395L30.0021 3.00328L38.5984 17.2618C38.9546 17.8523 39.6671 18.1336 40.3327 17.9461L58.8846 12.6495C59.8127 12.3777 60.2627 11.3465 59.8408 10.4841ZM4.99115 0.847162L0.163333 10.4841C-0.26789 11.3465 0.191456 12.3777 1.11015 12.6402L19.6621 17.9367C20.3277 18.1242 21.0401 17.843 21.3964 17.2524L30.0021 3.00328L6.54731 0.0128395C5.90047 -0.0621558 5.28176 0.265949 4.99115 0.847162Z" fill="#44AB1F"/>
</svg>
